<?xml version="1.0" encoding="utf-8"?>
<!-- Generator: Adobe Illustrator 23.0.3, SVG Export Plug-In . SVG Version: 6.00 Build 0)  -->
<svg version="1.1" id="Слой_1" xmlns="http://www.w3.org/2000/svg" xmlns:xlink="http://www.w3.org/1999/xlink" x="0px" y="0px"
	 viewBox="0 0 402 51" style="enable-background:new 0 0 402 51;" xml:space="preserve">
<style type="text/css">
	.st0{fill:#66697E;}
	.st1{fill:#F0F1F7;}
</style>
<g>
	<path class="st0" d="M18.79,0.36h10.66L48.1,51.48H36l-3.96-11.45H16.13l-3.89,11.45H0.14L18.79,0.36z M30.1,31.9l-5.98-18.07
		L18,31.9H30.1z"/>
	<path class="st0" d="M50.18,25.49c0-3.07,0.58-6.13,1.73-9.18c1.15-3.05,2.83-5.77,5.04-8.17c2.21-2.4,4.9-4.34,8.06-5.83
		c3.17-1.49,6.77-2.23,10.8-2.23c4.8,0,8.96,1.03,12.49,3.1c3.53,2.06,6.16,4.75,7.88,8.06l-9.07,6.34
		c-0.58-1.34-1.31-2.46-2.2-3.35c-0.89-0.89-1.86-1.61-2.92-2.16c-1.06-0.55-2.14-0.94-3.24-1.15c-1.1-0.22-2.18-0.32-3.24-0.32
		c-2.26,0-4.22,0.46-5.9,1.37c-1.68,0.91-3.07,2.09-4.18,3.53c-1.1,1.44-1.92,3.07-2.45,4.9c-0.53,1.82-0.79,3.67-0.79,5.54
		c0,2.02,0.31,3.96,0.94,5.83c0.62,1.87,1.52,3.53,2.7,4.97c1.18,1.44,2.59,2.58,4.25,3.42c1.66,0.84,3.52,1.26,5.58,1.26
		c1.06,0,2.15-0.13,3.28-0.4c1.13-0.26,2.21-0.67,3.24-1.22c1.03-0.55,1.98-1.27,2.84-2.16c0.86-0.89,1.56-1.98,2.09-3.28l9.65,5.69
		c-0.77,1.87-1.91,3.55-3.42,5.04c-1.51,1.49-3.25,2.74-5.22,3.74c-1.97,1.01-4.06,1.78-6.26,2.3c-2.21,0.53-4.37,0.79-6.48,0.79
		c-3.7,0-7.09-0.76-10.19-2.27c-3.1-1.51-5.76-3.52-7.99-6.01c-2.23-2.5-3.96-5.33-5.18-8.5C50.8,31.97,50.18,28.75,50.18,25.49z"/>
	<path class="st0" d="M141.62,10.73h-15.55v40.75h-11.81V10.73H98.64V0.36h42.98V10.73z"/>
	<path class="st0" d="M147.38,51.48V0.36h11.81v51.12H147.38z"/>
	<path class="st0" d="M176.4,0.36l12.02,36.29L200.3,0.36h12.46l-19.37,51.12h-9.94L163.87,0.36H176.4z"/>
	<path class="st0" d="M253.44,41.11v10.37h-35.93V0.36h35.28v10.37h-23.47v9.94h20.16v9.58h-20.16v10.87H253.44z"/>
	<path class="st1" d="M300.09,38.23c0,1.87-0.36,3.61-1.08,5.22c-0.72,1.61-1.71,3.01-2.95,4.21c-1.25,1.2-2.71,2.14-4.39,2.81
		c-1.68,0.67-3.46,1.01-5.33,1.01h-23.9V0.36h23.83c1.78,0,3.38,0.38,4.82,1.15c1.44,0.77,2.66,1.76,3.67,2.99
		c1.01,1.22,1.79,2.62,2.34,4.18c0.55,1.56,0.83,3.13,0.83,4.72c0,2.59-0.65,4.97-1.94,7.13s-3.1,3.74-5.4,4.75
		c2.93,0.86,5.24,2.48,6.95,4.86C299.24,32.51,300.09,35.21,300.09,38.23z M266.11,3.67v20.45h18.72c1.39,0,2.66-0.29,3.82-0.86
		c1.15-0.58,2.15-1.33,2.99-2.27s1.5-2.03,1.98-3.28c0.48-1.25,0.72-2.52,0.72-3.82c0-1.39-0.23-2.7-0.68-3.92
		c-0.46-1.22-1.08-2.3-1.87-3.24s-1.74-1.68-2.84-2.23c-1.11-0.55-2.33-0.83-3.67-0.83H266.11z M296.42,37.73
		c0-1.34-0.24-2.65-0.72-3.92c-0.48-1.27-1.15-2.4-2.02-3.38c-0.86-0.98-1.88-1.76-3.06-2.34c-1.18-0.58-2.44-0.86-3.78-0.86h-20.74
		v20.95h20.23c1.44,0,2.77-0.29,4-0.86c1.22-0.58,2.28-1.36,3.17-2.34c0.89-0.98,1.6-2.1,2.12-3.35
		C296.16,40.37,296.42,39.07,296.42,37.73z"/>
	<path class="st1" d="M330.48,51.84c-3.55,0-6.79-0.74-9.72-2.23c-2.93-1.49-5.45-3.43-7.56-5.83c-2.11-2.4-3.74-5.16-4.9-8.28
		c-1.15-3.12-1.73-6.31-1.73-9.58c0-3.41,0.61-6.67,1.84-9.79c1.22-3.12,2.9-5.88,5.04-8.28c2.14-2.4,4.67-4.31,7.6-5.72
		c2.93-1.42,6.1-2.12,9.5-2.12c3.55,0,6.8,0.76,9.76,2.27c2.95,1.51,5.47,3.49,7.56,5.94c2.09,2.45,3.71,5.22,4.86,8.32
		c1.15,3.1,1.73,6.23,1.73,9.4c0,3.46-0.61,6.74-1.84,9.86c-1.22,3.12-2.9,5.87-5.04,8.24c-2.14,2.38-4.67,4.27-7.6,5.69
		C337.05,51.13,333.88,51.84,330.48,51.84z M310.24,25.92c0,2.93,0.49,5.75,1.48,8.46c0.98,2.71,2.38,5.11,4.18,7.2
		s3.95,3.76,6.44,5c2.5,1.25,5.23,1.87,8.21,1.87c3.07,0,5.84-0.65,8.32-1.94c2.47-1.3,4.58-3.01,6.34-5.15
		c1.75-2.14,3.11-4.55,4.07-7.24c0.96-2.69,1.44-5.42,1.44-8.21c0-2.93-0.5-5.75-1.51-8.46c-1.01-2.71-2.41-5.11-4.21-7.2
		c-1.8-2.09-3.92-3.75-6.37-5c-2.45-1.25-5.14-1.87-8.06-1.87c-3.07,0-5.86,0.65-8.35,1.94c-2.5,1.3-4.63,3.01-6.41,5.15
		c-1.78,2.14-3.14,4.55-4.1,7.24C310.72,20.4,310.24,23.14,310.24,25.92z"/>
	<path class="st1" d="M362.37,0.36l17.93,23.26l17.86-23.26h4.18l-20.09,25.92l19.51,25.2h-4.18L380.3,28.94l-17.35,22.54h-4.25
		l19.51-25.2L358.12,0.36H362.37z"/>
</g>
</svg>
